# xmcd
# 
# Track frame offsets:
#     183
#     15370
#     32930
#     48370
#     63280
#     79238
#     94743
#     116980
#     134778
#     150298
#     164838
#     184110
# 
# Disc length: 2690
# 
# Revision: 2
# Processed by: cddbd v1.5.2PL0 Copyright (c) Steve Scherf et al.
# Submitted via: fre:ac v1.0.31
# 
DISCID=a00a800c
DTITLE=Audrey Landers - Rendez-Vous
DYEAR=1991
DGENRE=Schlager
TTITLE0=Santa Maria Goodbye
TTITLE1=Fallin' Angel
TTITLE2=Bellerina
TTITLE3=Seven Days
TTITLE4=Heaven
TTITLE5=Rendez-Vous
TTITLE6=My Favorite Cafe On The Harbor
TTITLE7=Never Another Lonely Night
TTITLE8=Turn To Me
TTITLE9=Monte Carlo
TTITLE10=Dance A Little Closer
TTITLE11=It Was Destiny
EXTD=
EXTT0=
EXTT1=
EXTT2=
EXTT3=
EXTT4=
EXTT5=
EXTT6=
EXTT7=
EXTT8=
EXTT9=
EXTT10=
EXTT11=
PLAYORDER=
